<?xml version="1.0" encoding="UTF-8" standalone="no"?>
<!-- Created with Inkscape (http://www.inkscape.org/) -->

<svg
   xmlns:dc="http://purl.org/dc/elements/1.1/"
   xmlns:cc="http://creativecommons.org/ns#"
   xmlns:rdf="http://www.w3.org/1999/02/22-rdf-syntax-ns#"
   xmlns:svg="http://www.w3.org/2000/svg"
   xmlns="http://www.w3.org/2000/svg"
   xmlns:sodipodi="http://sodipodi.sourceforge.net/DTD/sodipodi-0.dtd"
   xmlns:inkscape="http://www.inkscape.org/namespaces/inkscape"
   width="1920px"
   height="1080px"
   id="svg3030"
   version="1.1"
   inkscape:version="0.48.3.1 r9886"
   sodipodi:docname="New document 3">
  <defs
     id="defs3032" />
  <sodipodi:namedview
     id="base"
     pagecolor="#ffffff"
     bordercolor="#666666"
     borderopacity="1.0"
     inkscape:pageopacity="0.0"
     inkscape:pageshadow="2"
     inkscape:zoom="0.3"
     inkscape:cx="406.66667"
     inkscape:cy="806.66667"
     inkscape:document-units="px"
     inkscape:current-layer="layer1"
     showgrid="false"
     showguides="true"
     inkscape:guide-bbox="true"
     inkscape:window-width="1672"
     inkscape:window-height="788"
     inkscape:window-x="65"
     inkscape:window-y="24"
     inkscape:window-maximized="0">
    <sodipodi:guide
       orientation="0,1"
       position="956.66667,540"
       id="guide3077" />
    <sodipodi:guide
       orientation="1,0"
       position="960,1346.6667"
       id="guide3079" />
  </sodipodi:namedview>
  <metadata
     id="metadata3035">
    <rdf:RDF>
      <cc:Work
         rdf:about="">
        <dc:format>image/svg+xml</dc:format>
        <dc:type
           rdf:resource="http://purl.org/dc/dcmitype/StillImage" />
        <dc:title></dc:title>
      </cc:Work>
    </rdf:RDF>
  </metadata>
  <g
     id="layer1"
     inkscape:label="Layer 1"
     inkscape:groupmode="layer">
    <g
       id="g3311"
       transform="matrix(3.375,0,0,3.375,-422.83972,-545.92642)">
      <path
         inkscape:connector-curvature="0"
         id="path4481-3-6"
         d="m 269.07526,300.7195 c 1.82748,-0.1455 5.0503,-0.0771 6.83998,0.14513 3.0583,0.3798 8.60632,2.1452 10.35855,3.29612 1.02367,0.67243 2.74775,3.66765 4.18495,7.2706 3.0142,7.55635 3.05752,15.2073 0.12937,22.83548 -2.36365,6.1575 -6.48422,11.357 -11.87182,14.98027 -1.86145,1.25188 -6.75958,3.5731 -8.49458,4.02563 -0.93325,0.24335 -0.9322,0.2415 0.68573,-1.22575 6.61622,-6.0002 10.37377,-14.4363 10.4125,-23.37743 0.0208,-4.76597 -0.80738,-8.5984 -2.85878,-13.2311 -2.53585,-5.72672 -6.26407,-10.31727 -10.88637,-13.40425 -0.5094,-0.3402 -0.94998,-0.672 -0.97905,-0.73727 -0.10438,-0.23443 0.79117,-0.443 2.47952,-0.57743 z"
         style="fill:#006482;fill-opacity:1;stroke:none" />
      <path
         inkscape:connector-curvature="0"
         id="path4481-8-0-4"
         d="m 236.19211,324.7385 c -1.01327,-1.5278 -2.51587,-4.3797 -3.18915,-6.05272 -1.1505,-2.85898 -2.2962,-8.5673 -2.13907,-10.65778 0.0918,-1.22135 1.87567,-4.18135 4.33012,-7.1851 5.1476,-6.2997 11.81823,-10.04685 19.9096,-11.184 6.5314,-0.91792 13.0767,0.16523 18.85763,3.12073 1.99735,1.02112 6.40222,4.17977 7.63915,5.47785 0.6653,0.69827 0.66317,0.69825 -1.4045,-0.005 -8.4555,-2.87773 -17.65558,-2.07423 -25.49445,2.2266 -4.17843,2.2925 -7.12888,4.87477 -10.18623,8.91492 -3.77935,4.9942 -5.98677,10.4806 -6.44582,16.01995 -0.0506,0.61045 -0.12715,1.15668 -0.17015,1.21373 -0.15453,0.20487 -0.77103,-0.47723 -1.70713,-1.8887 z"
         style="fill:#003c64;fill-opacity:1;stroke:none" />
      <path
         inkscape:connector-curvature="0"
         id="path4481-8-6-8-3"
         d="m 274.19391,341.48095 c -0.78772,1.65545 -2.4584,4.41228 -3.5457,5.85105 -1.85805,2.45868 -6.16097,6.3807 -8.0338,7.3227 -1.09417,0.55035 -4.55015,0.5458 -8.38897,-0.011 -8.0511,-1.16777 -14.69868,-4.9557 -19.84083,-11.30565 -4.1507,-5.12572 -6.59332,-11.29407 -7.03735,-17.77145 -0.15342,-2.238 0.28535,-7.64052 0.76098,-9.36935 0.25587,-0.92987 0.25697,-0.92805 0.71867,1.20675 1.8882,8.7299 7.31533,16.20208 15.03918,20.70618 4.1171,2.4009 7.85012,3.59997 12.8879,4.13977 6.22735,0.66735 12.06702,-0.2662 17.05157,-2.72572 0.5493,-0.2711 1.05695,-0.48672 1.12805,-0.47925 0.25518,0.0268 -0.012,0.9067 -0.7397,2.43605 z"
         style="fill:#008ca0;fill-opacity:1;stroke:none" />
      <text
         sodipodi:linespacing="125%"
         id="text3996-3-2-1"
         y="350.30615"
         x="148.9478"
         style="font-size:82.5px;font-style:normal;font-variant:normal;font-weight:bold;font-stretch:normal;line-height:125%;letter-spacing:0px;word-spacing:0px;fill:#3c3c3c;fill-opacity:1;stroke:none;font-family:Syncopate;-inkscape-font-specification:Syncopate Bold"
         xml:space="preserve"><tspan
           style="font-size:82.5px;font-style:normal;font-variant:normal;font-weight:bold;font-stretch:normal;fill:#3c3c3c;fill-opacity:1;font-family:Syncopate;-inkscape-font-specification:Syncopate Bold"
           y="350.30615"
           x="148.9478"
           id="tspan3998-2-0-23"
           sodipodi:role="line">c</tspan></text>
      <text
         sodipodi:linespacing="125%"
         id="text4000-9-0-92"
         y="350.30615"
         x="297.85287"
         style="font-size:82.5px;font-style:normal;font-variant:normal;font-weight:bold;font-stretch:normal;line-height:125%;letter-spacing:0px;word-spacing:0px;fill:#3c3c3c;fill-opacity:1;stroke:none;font-family:Syncopate;-inkscape-font-specification:Syncopate Bold"
         xml:space="preserve"><tspan
           style="font-size:82.5px;font-style:normal;font-variant:normal;font-weight:bold;font-stretch:normal;fill:#3c3c3c;fill-opacity:1;font-family:Syncopate;-inkscape-font-specification:Syncopate Bold"
           y="350.30615"
           x="297.85287"
           id="tspan4002-2-4-8"
           sodipodi:role="line">mpass</tspan></text>
    </g>
  </g>
</svg>
